# xmcd
#
# Track frame offsets: 
#        150
#        22378
#        65699
#        86825
#        123314
#        173207
#        210704
#        237279
#        299547
#        353207
#
# Disc length: 4781 seconds
#
# Revision: 0
# Processed by: cddbd v1.5.2PL0 Copyright (c) Steve Scherf et al.
# Submitted via: ExactAudioCopy v0.95b4
#
DISCID=a012ab0a
DTITLE=Tool - Live Covers and Alternate Versions
DYEAR=1900
DGENRE=Acid Jazz
TTITLE0=Stinkfist (early version)
TTITLE1=Opiate (with Layne Staley)
TTITLE2=Spasm (Peach) (with Buzz Osborne)
TTITLE3=You Lied (Peach) (with Buzz Osborne)
TTITLE4=Merkaba
TTITLE5=Stranglehold (Ted Nugent) (with Buzz Osborne)
TTITLE6=Demoncleaner (Kyuss) (with Scott Reeder)
TTITLE7=Pushit (Salival version) 
TTITLE8=No Quarter (Led Zeppelin)
TTITLE9=Hooker With A Penis (Lounge version)
EXTD=
EXTT0=
EXTT1=
EXTT2=
EXTT3=
EXTT4=
EXTT5=
EXTT6=
EXTT7=
EXTT8=
EXTT9=
PLAYORDER=
